<svg width="20" height="20" viewBox="0 0 20 20" fill="none" xmlns="http://www.w3.org/2000/svg">
<g clip-path="url(#clip0)">
<path fill-rule="evenodd" clip-rule="evenodd" d="M0.983002 7.42625H6.91019V8.46445L9.46351 6.64929L6.91019 4.83409V5.8723H0.983002V7.42625Z" fill="#1EAEE0"/>
<path fill-rule="evenodd" clip-rule="evenodd" d="M16.2057 13.8274H19.017V10.1457L17.7148 6.83682L17.0638 5.18241H16.2687H11.4256V13.8274L13.3899 13.8263C13.7254 13.4199 14.2314 13.1598 14.7972 13.1598C15.3641 13.1598 15.8702 13.4199 16.2057 13.8274Z" fill="#1EAEE0"/>
<path fill-rule="evenodd" clip-rule="evenodd" d="M14.0919 10.1457H19.017L17.7148 6.83682H14.0919V9.9023V10.1457Z" fill="white"/>
<path fill-rule="evenodd" clip-rule="evenodd" d="M11.4256 13.8274V5.18242H12.9293V3.15176H0.983002V5.8723H6.91019V4.8341L9.46355 6.6493L6.91019 8.46449V7.42629H0.983002V13.8274L3.23296 13.8263C3.56847 13.4199 4.07449 13.1598 4.6414 13.1598C5.20722 13.1598 5.71324 13.42 6.04874 13.8274H11.4256V13.8274Z" fill="#E67D97"/>
<path fill-rule="evenodd" clip-rule="evenodd" d="M6.41964 15.436H13.0189C12.9857 15.2976 12.968 15.1525 12.968 15.004C12.968 14.5564 13.1263 14.1467 13.3899 13.8263L11.4256 13.8274L6.04871 13.8263C6.31222 14.1467 6.47058 14.5564 6.47058 15.004C6.47058 15.1525 6.45289 15.2976 6.41964 15.436Z" fill="#F4F6FB"/>
<path fill-rule="evenodd" clip-rule="evenodd" d="M0.983008 15.436H2.86312C2.82992 15.2976 2.81219 15.1525 2.81219 15.004C2.81219 14.5564 2.97051 14.1467 3.23293 13.8274H0.983008C0.657461 13.8274 0.390625 14.0953 0.390625 14.4235V14.8388C0.390625 15.167 0.657461 15.436 0.983008 15.436Z" fill="#F4F6FB"/>
<path fill-rule="evenodd" clip-rule="evenodd" d="M19.017 15.436C19.3425 15.436 19.6094 15.167 19.6094 14.8388V14.4235C19.6094 14.0953 19.3425 13.8274 19.017 13.8274L16.2057 13.8263C16.4681 14.1467 16.6264 14.5564 16.6264 15.004C16.6264 15.1525 16.6087 15.2976 16.5755 15.436H19.017Z" fill="#F4F6FB"/>
<path fill-rule="evenodd" clip-rule="evenodd" d="M14.7972 16.8482C15.6598 16.8482 16.3828 16.2465 16.5755 15.436C16.6087 15.2976 16.6264 15.1525 16.6264 15.004C16.6264 14.5564 16.4681 14.1467 16.2057 13.8274C15.8702 13.4199 15.3642 13.1598 14.7973 13.1598C14.2314 13.1598 13.7254 13.4199 13.3899 13.8262C13.1264 14.1466 12.968 14.5563 12.968 15.004C12.968 15.1525 12.9858 15.2976 13.019 15.436C13.2116 16.2465 13.9346 16.8482 14.7972 16.8482Z" fill="#AAAAAA"/>
<path fill-rule="evenodd" clip-rule="evenodd" d="M4.64142 16.8482C5.50396 16.8482 6.22701 16.2465 6.4197 15.436C6.4529 15.2976 6.47064 15.1525 6.47064 15.004C6.47064 14.5564 6.31232 14.1467 6.04876 13.8274C5.71326 13.4199 5.20724 13.1598 4.64142 13.1598C4.07451 13.1598 3.56849 13.4199 3.23298 13.8262C2.97056 14.1466 2.81224 14.5563 2.81224 15.004C2.81224 15.1525 2.82998 15.2976 2.86318 15.436C3.05583 16.2465 3.77884 16.8482 4.64142 16.8482Z" fill="#AAAAAA"/>
<path d="M4.6425 15.3946C4.42676 15.3946 4.25078 15.2198 4.25078 15.004C4.25078 14.7883 4.42457 14.6134 4.64031 14.6134H4.64254C4.85828 14.6134 5.03317 14.7883 5.03317 15.004C5.03317 15.2198 4.85824 15.3946 4.6425 15.3946Z" fill="black"/>
<path d="M19.4076 13.5182V10.1457C19.4076 10.0973 19.3982 10.0476 19.3805 10.0026L17.4273 5.03933C17.3685 4.88995 17.2243 4.79175 17.0638 4.79175H13.3199V3.15179C13.3199 2.93605 13.145 2.76116 12.9293 2.76116H8.06394C7.8482 2.76116 7.67332 2.93605 7.67332 3.15179C7.67332 3.36753 7.8482 3.54241 8.06394 3.54241H12.5386V4.79179H11.4256C11.2099 4.79179 11.035 4.96667 11.035 5.18241V13.4368H6.22195C5.8191 13.025 5.25945 12.7692 4.64141 12.7692C4.02336 12.7692 3.46375 13.0251 3.06086 13.4368H1.37363V7.81687H6.51957V8.46445C6.51957 8.61062 6.60117 8.74452 6.73105 8.81159C6.7875 8.84073 6.84895 8.85507 6.91016 8.85507C6.98984 8.85507 7.06914 8.8307 7.13652 8.7828L9.68988 6.96761C9.79297 6.89433 9.85418 6.7757 9.85418 6.64925C9.85418 6.52281 9.79297 6.40417 9.68988 6.33089L7.13652 4.5157C7.01742 4.43105 6.86098 4.41991 6.73105 4.48695C6.60117 4.55398 6.51957 4.68792 6.51957 4.83409V5.48167H1.37363V3.54241H4.55613C4.77187 3.54241 4.94676 3.36753 4.94676 3.15179C4.94676 2.93605 4.77187 2.76116 4.55613 2.76116H0.983008C0.767266 2.76116 0.592383 2.93605 0.592383 3.15179V13.5182C0.24418 13.6702 0 14.0187 0 14.4235V14.8388C0 15.3835 0.440977 15.8266 0.983008 15.8266H2.57809C2.90426 16.6529 3.7059 17.2388 4.64141 17.2388C5.57691 17.2388 6.37855 16.6529 6.70473 15.8266H12.7339C13.0601 16.6529 13.8617 17.2388 14.7972 17.2388C15.7328 17.2388 16.5343 16.6529 16.8605 15.8266H19.017C19.5591 15.8266 20 15.3835 20 14.8388V14.4235C20 14.0187 19.7558 13.6702 19.4076 13.5182ZM1.37363 6.26292H6.9102C7.12594 6.26292 7.30082 6.08804 7.30082 5.8723V5.59105L8.78938 6.64925L7.30082 7.70745V7.4262C7.30082 7.21046 7.12594 7.03558 6.9102 7.03558H1.37363V6.26292ZM2.42262 15.0454H0.983008C0.873633 15.0454 0.78125 14.9508 0.78125 14.8388V14.4235C0.78125 14.3121 0.873633 14.218 0.983008 14.218H2.56371C2.47207 14.4627 2.4216 14.7275 2.4216 15.0041C2.4216 15.0179 2.42238 15.0316 2.42262 15.0454ZM4.64141 16.4576C3.84816 16.4576 3.20285 15.8055 3.20285 15.004C3.20285 14.2025 3.8482 13.5504 4.64141 13.5504C5.43461 13.5504 6.08 14.2025 6.08 15.004C6.08 15.8055 5.43461 16.4576 4.64141 16.4576ZM18.4435 9.75503H14.4825V7.22742H17.4488L18.4435 9.75503ZM11.8162 5.573H16.7977L17.1413 6.4462H14.0919C13.8762 6.4462 13.7013 6.62109 13.7013 6.83683V10.1457C13.7013 10.3614 13.8762 10.5363 14.0919 10.5363H18.6264V11.5959H18.0514C17.8357 11.5959 17.6608 11.7708 17.6608 11.9866C17.6608 12.2023 17.8357 12.3772 18.0514 12.3772H18.6264V13.4368H16.3778C15.9749 13.025 15.4153 12.7692 14.7972 12.7692C14.1792 12.7692 13.6195 13.0251 13.2167 13.4368H11.8162V5.573ZM6.8602 15.0454C6.86043 15.0316 6.86125 15.0179 6.86125 15.004C6.86125 14.7275 6.81074 14.4627 6.71914 14.218H12.7195C12.6279 14.4626 12.5774 14.7275 12.5774 15.004C12.5774 15.0179 12.5782 15.0316 12.5785 15.0454H6.8602ZM14.7972 16.4576C14.004 16.4576 13.3587 15.8055 13.3587 15.004C13.3587 14.2025 14.004 13.5504 14.7972 13.5504C15.5904 13.5504 16.2358 14.2025 16.2358 15.004C16.2358 15.8055 15.5904 16.4576 14.7972 16.4576ZM19.2188 14.8388C19.2188 14.9508 19.1264 15.0454 19.017 15.0454H17.016C17.0162 15.0316 17.017 15.0179 17.017 15.004C17.017 14.7275 16.9665 14.4627 16.8749 14.218H19.017C19.1264 14.218 19.2188 14.3121 19.2188 14.4235V14.8388H19.2188Z" fill="black"/>
<path d="M14.7983 14.6134H14.7961C14.5804 14.6134 14.4066 14.7883 14.4066 15.004C14.4066 15.2198 14.5826 15.3946 14.7983 15.3946C15.014 15.3946 15.1889 15.2198 15.1889 15.004C15.1889 14.7883 15.014 14.6134 14.7983 14.6134Z" fill="black"/>
<path d="M2.75352 11.2007C2.53778 11.2007 2.3629 11.3756 2.3629 11.5914C2.3629 11.8071 2.53778 11.982 2.75352 11.982H4.67352C4.88927 11.982 5.06415 11.8071 5.06415 11.5914C5.06415 11.3756 4.88927 11.2007 4.67352 11.2007H2.75352Z" fill="black"/>
<path d="M6.23563 10.0106C6.23563 9.79484 6.06075 9.61995 5.84501 9.61995H2.75352C2.53778 9.61995 2.3629 9.79484 2.3629 10.0106C2.3629 10.2263 2.53778 10.4012 2.75352 10.4012H5.84501C6.06075 10.4012 6.23563 10.2263 6.23563 10.0106Z" fill="black"/>
<path d="M6.31004 3.54241H6.31114C6.52688 3.54241 6.70122 3.36753 6.70122 3.15179C6.70122 2.93605 6.52579 2.76116 6.31004 2.76116C6.0943 2.76116 5.91942 2.93605 5.91942 3.15179C5.91942 3.36753 6.0943 3.54241 6.31004 3.54241Z" fill="black"/>
</g>
<defs>
<clipPath id="clip0">
<rect width="20" height="20" fill="white"/>
</clipPath>
</defs>
</svg>
