<svg width="14" height="13" viewBox="0 0 14 13" fill="none" xmlns="http://www.w3.org/2000/svg">
<path fill-rule="evenodd" clip-rule="evenodd" d="M0 1.83332C0 1.18899 0.522334 0.666656 1.16667 0.666656H12.8333C13.4777 0.666656 14 1.18899 14 1.83332C14 2.47766 13.4777 2.99999 12.8333 2.99999H1.16667C0.522334 2.99999 0 2.47766 0 1.83332Z" fill="white"/>
<path fill-rule="evenodd" clip-rule="evenodd" d="M4.66667 6.49998C4.66667 5.85565 5.18901 5.33331 5.83334 5.33331L12.8333 5.33331C13.4777 5.33331 14 5.85565 14 6.49998C14 7.14431 13.4777 7.66665 12.8333 7.66665L5.83334 7.66665C5.18901 7.66665 4.66667 7.14431 4.66667 6.49998Z" fill="white"/>
<path fill-rule="evenodd" clip-rule="evenodd" d="M0 11.1667C0 10.5223 0.522335 10 1.16667 10H12.8333C13.4777 10 14 10.5223 14 11.1667C14 11.811 13.4777 12.3333 12.8333 12.3333H1.16667C0.522335 12.3333 0 11.811 0 11.1667Z" fill="white"/>
</svg>
