<svg width="18" height="19" viewBox="0 0 18 19" fill="none" xmlns="http://www.w3.org/2000/svg">
<mask id="path-1-inside-1" fill="white">
<path d="M11.8102 16.454C13.6389 15.6997 15.1494 14.3347 16.0845 12.5916C17.0195 10.8485 17.3212 8.83504 16.9382 6.89439C16.5551 4.95374 15.5111 3.20594 13.9838 1.9488C12.4566 0.691649 10.5407 0.00293717 8.56266 9.36546e-06C6.58457 -0.00291844 4.66666 0.680119 3.13573 1.93274C1.60479 3.18536 0.555541 4.93006 0.166764 6.86957C-0.222013 8.80907 0.0737348 10.8234 1.00362 12.5693C1.9335 14.3152 3.43998 15.6846 5.26637 16.4443L6.19397 14.2142C4.88352 13.6692 3.80261 12.6866 3.13541 11.4339C2.46821 10.1812 2.25601 8.73589 2.53496 7.34428C2.81391 5.95267 3.56676 4.70083 4.66522 3.80206C5.76368 2.9033 7.13979 2.41322 8.55908 2.41532C9.97837 2.41742 11.353 2.91157 12.4488 3.81359C13.5446 4.7156 14.2937 5.96966 14.5686 7.36209C14.8434 8.75452 14.6269 10.1992 13.956 11.4499C13.2851 12.7006 12.2013 13.68 10.8893 14.2212L11.8102 16.454Z"/>
</mask>
<path d="M11.8102 16.454C13.6389 15.6997 15.1494 14.3347 16.0845 12.5916C17.0195 10.8485 17.3212 8.83504 16.9382 6.89439C16.5551 4.95374 15.5111 3.20594 13.9838 1.9488C12.4566 0.691649 10.5407 0.00293717 8.56266 9.36546e-06C6.58457 -0.00291844 4.66666 0.680119 3.13573 1.93274C1.60479 3.18536 0.555541 4.93006 0.166764 6.86957C-0.222013 8.80907 0.0737348 10.8234 1.00362 12.5693C1.9335 14.3152 3.43998 15.6846 5.26637 16.4443L6.19397 14.2142C4.88352 13.6692 3.80261 12.6866 3.13541 11.4339C2.46821 10.1812 2.25601 8.73589 2.53496 7.34428C2.81391 5.95267 3.56676 4.70083 4.66522 3.80206C5.76368 2.9033 7.13979 2.41322 8.55908 2.41532C9.97837 2.41742 11.353 2.91157 12.4488 3.81359C13.5446 4.7156 14.2937 5.96966 14.5686 7.36209C14.8434 8.75452 14.6269 10.1992 13.956 11.4499C13.2851 12.7006 12.2013 13.68 10.8893 14.2212L11.8102 16.454Z" stroke="white" stroke-width="6" stroke-linecap="round" stroke-linejoin="round" mask="url(#path-1-inside-1)"/>
<rect x="7.59998" y="10.45" width="1.9" height="8.55" rx="0.95" fill="white"/>
</svg>
