<svg width="23" height="23" viewBox="0 0 23 23" fill="none" xmlns="http://www.w3.org/2000/svg">
<path d="M3.66724 17.0806C6.06228 21.2289 11.376 22.6449 15.5358 20.2433C19.6956 17.8416 21.1262 12.5318 18.7312 8.38348C17.693 6.58517 16.1061 5.30081 14.3027 4.61786L14.3032 4.61755L4.17718 0.507828L2.6251 11.3077L2.62947 11.3052C2.3034 13.2252 2.61855 15.2642 3.66724 17.0806Z" fill="#79E884"/>
<path fill-rule="evenodd" clip-rule="evenodd" d="M17.724 19.1983C17.4283 19.4949 17.1113 19.7722 16.7743 20.0284C16.5588 20.1922 16.4082 20.2921 16.2613 20.3896C16.2401 20.4037 16.2189 20.4177 16.1977 20.4319L16.846 21.4972C16.9863 21.7401 16.9031 22.0508 16.6602 22.191C16.5802 22.2371 16.4928 22.2591 16.4067 22.2591C16.2312 22.2591 16.0605 22.168 15.9664 22.005L15.3422 20.924C14.0177 21.5954 12.5974 21.9173 11.1938 21.9173C8.01566 21.9173 4.92405 20.2735 3.2273 17.3345C2.17364 15.5096 1.78049 13.3646 2.11757 11.2868C2.11829 11.2697 2.11981 11.2526 2.1223 11.2355L3.67432 0.435613C3.69662 0.280934 3.78873 0.145145 3.92417 0.0673987C4.05955 -0.0103474 4.22337 -0.0214176 4.36805 0.0372347L8.33366 1.6468C8.59355 1.75227 8.71873 2.04843 8.61326 2.30837C8.50778 2.56827 8.21188 2.6935 7.95173 2.58798L4.58742 1.22252L3.13726 11.315C3.13686 11.3401 3.13457 11.3652 3.13025 11.3904C2.81333 13.2562 3.16027 15.1869 4.10713 16.8269C6.27331 20.5788 10.9963 21.9563 14.8341 20.0436L13.9818 18.5676L7.08601 16.7198C6.81504 16.6472 6.65427 16.3688 6.72689 16.0978C6.7995 15.8269 7.07778 15.6661 7.34886 15.7387L13.2636 17.3235L11.3834 14.0669L6.59948 12.785C6.32851 12.7124 6.16773 12.434 6.24035 12.163C6.31297 11.8921 6.5913 11.7312 6.86232 11.8039L10.6651 12.8228L9.18297 10.2556L6.30195 9.48361C6.03098 9.41099 5.87021 9.13256 5.94282 8.86159C6.01544 8.59067 6.29377 8.42985 6.56479 8.50247L8.46472 9.01155L7.06062 6.57959C6.92031 6.3367 7.00359 6.02607 7.24648 5.88586C7.48937 5.74555 7.8 5.82878 7.9402 6.07172L9.3443 8.50374L9.85349 6.60376C9.9261 6.33284 10.2044 6.17207 10.4755 6.24463C10.7464 6.31725 10.9072 6.59568 10.8346 6.86665L10.0626 9.74773L11.5447 12.3149L12.5637 8.51196C12.6363 8.24105 12.9146 8.08022 13.1857 8.15284C13.4566 8.22546 13.6174 8.50389 13.5448 8.77486L12.2629 13.5589L14.1431 16.8155L15.7279 10.9006C15.8005 10.6297 16.0788 10.4689 16.3499 10.5415C16.6208 10.6141 16.7816 10.8925 16.709 11.1635L14.8612 18.0594L15.7135 19.5356C17.3822 18.4324 18.5769 16.7813 19.101 14.8361C19.6691 12.7273 19.3815 10.5258 18.2911 8.63719C17.3544 7.01468 15.874 5.75586 14.1226 5.09261C14.1119 5.08855 14.1014 5.08418 14.0911 5.07946L11.814 4.15534C11.5542 4.04987 11.429 3.75371 11.5344 3.49376C11.6399 3.23391 11.9359 3.10869 12.196 3.21416L14.4939 4.14681L14.5037 4.15092C16.4642 4.89903 18.121 6.31116 19.1708 8.12943C20.0045 9.57334 20.4204 11.1799 20.4009 12.8055C20.391 13.6319 20.3709 14.1658 19.9965 15.395C19.7278 16.2773 19.3345 17.102 18.8319 17.8498C18.5634 18.2492 18.2668 18.6537 17.724 19.1983ZM10.3922 3.24388C10.2978 3.33833 10.1667 3.39267 10.0331 3.39267C9.89953 3.39267 9.76856 3.33838 9.67406 3.24388C9.57955 3.14892 9.52527 3.01836 9.52527 2.8843C9.52527 2.75069 9.57961 2.62018 9.67406 2.52522C9.76851 2.43077 9.89953 2.37643 10.0331 2.37643C10.1667 2.37643 10.2978 2.43077 10.3922 2.52522C10.4871 2.62018 10.541 2.75074 10.541 2.8843C10.541 3.0179 10.4871 3.14892 10.3922 3.24388Z" fill="#0C971A"/>
</svg>
