<svg width="15" height="13" viewBox="0 0 15 13" fill="none" xmlns="http://www.w3.org/2000/svg">
<path d="M5.63951 12.7095C6.01642 13.0969 6.62753 13.0968 7.00431 12.7095C7.38135 12.3218 7.38135 11.6936 7.00419 11.3059L3.29556 7.49277L14.035 7.49171C14.568 7.49158 15 7.0474 15 6.4991C14.9999 5.95106 14.5679 5.50701 14.0349 5.50701L3.29504 5.50807L7.00457 1.69414C7.38148 1.30659 7.38148 0.678106 7.00457 0.290692C6.81605 0.0969855 6.56911 0 6.32204 0C6.0751 0 5.82816 0.0969855 5.63964 0.29056L0.282716 5.7985C0.101659 5.98453 0 6.23685 0 6.50016C0.000128682 6.76346 0.101788 7.01565 0.282844 7.20208L5.63951 12.7095Z" fill="white"/>
</svg>
